<svg id="SvgjsSvg1001" width="288" height="288" xmlns="http://www.w3.org/2000/svg" version="1.1" xmlns:xlink="http://www.w3.org/1999/xlink" xmlns:svgjs="http://svgjs.com/svgjs"><defs id="SvgjsDefs1002"></defs><g id="SvgjsG1008"><svg xmlns="http://www.w3.org/2000/svg" fill="none" viewBox="0 0 117 83" width="288" height="288"><g clip-path="url(#a)"><path fill="#222222" d="M.864068 77.0341C.571799 78.923 2.12079 81.0778 4.24573 81.7405 5.35826 82.0874 6.51143 82.2871 7.67579 82.3345 8.64785 82.3701 9.61992 82.4129 10.592 82.457 12.8673 82.5575 15.1971 82.6613 17.5262 82.6613 18.462 82.6613 19.3976 82.6444 20.3282 82.6036 24.8587 82.409 29.4586 82.1185 33.9068 81.8378 39.235 81.5025 44.7439 81.1562 50.1635 80.9682 64.2728 80.4799 78.4358 78.5379 92.1329 76.66L93.9098 76.4162C97.1208 75.9772 100.441 75.522 103.679 74.8794 103.822 74.8515 103.97 74.8262 104.12 74.8009 105.421 74.5791 107.386 74.2452 107.892 71.2566 107.919 71.0944 107.886 70.9284 107.799 70.7897 107.711 70.6509 107.576 70.5491 107.418 70.5044 107.077 70.4071 106.762 70.3001 106.464 70.1983 105.852 69.9577 105.21 69.8008 104.556 69.7327L102.492 69.6108C97.73 69.3294 92.8062 69.0389 87.9536 68.9092 74.2028 68.5331 60.4414 68.891 46.7284 69.9811 37.8942 70.6944 28.8994 71.2779 20.2 71.8427 15.7933 72.1287 11.3864 72.4205 6.97967 72.7181 6.03861 72.7596 5.10674 72.9204 4.20618 73.1967 3.3401 73.4483 2.56472 73.9437 1.9722 74.6245 1.37968 75.3047.994867 76.1412.864068 77.0341zM3.22255 43.1126C3.20108 43.8194 3.38029 44.5179 3.73928 45.1271 4.09827 45.7363 4.62228 46.2312 5.25086 46.5545 6.31856 47.0793 7.47899 47.3888 8.66608 47.4655 10.2402 47.5621 11.892 47.6451 13.5691 47.6451 14.3895 47.6451 15.2154 47.625 16.041 47.5771 20.9662 47.2943 25.9651 46.9598 30.8021 46.6369 39.8572 46.0325 49.2203 45.4049 58.4348 45.0891 70.9781 44.6572 83.5891 43.1159 95.7846 41.6251 98.9821 41.236 102.177 40.8518 105.37 40.4728 105.625 40.4436 105.882 40.4197 106.144 40.3957 108.013 40.2238 110.34 40.0099 112.715 37.4647 112.789 37.3858 112.842 37.2902 112.87 37.1862 112.899 37.0823 112.902 36.9732 112.879 36.8679 112.856 36.7626 112.807 36.6644 112.738 36.5818 112.669 36.4992 112.581 36.4346 112.481 36.3935 108.143 34.6077 104.391 34.3631 100.611 34.2535L97.3114 34.1582C86.8623 33.8541 76.0594 33.5396 65.3902 33.9501 47.4562 34.6413 29.8936 36.3877 10.44 38.4303 8.61126 38.63 6.82885 39.1354 5.16732 39.9255 4.57565 40.219 4.07899 40.674 3.73485 41.2381 3.39071 41.802 3.21316 42.4519 3.22255 43.1126zM6.91381 9.30705C8.17858 9.92436 9.5466 10.3015 10.9489 10.4192 11.7179 10.4762 12.4874 10.5351 13.2572 10.5956 16.8105 10.8705 20.4753 11.1544 24.1056 11.1544 24.3862 11.1544 24.6674 11.1545 24.948 11.1493 31.8108 11.0631 38.7858 10.9028 45.5314 10.7479 54.4809 10.543 63.7355 10.3309 72.8353 10.2887 85.861 10.2284 98.9463 8.7383 111.602 7.29747L112.008 7.25156C112.805 7.0986 113.568 6.79844 114.256 6.36646 114.716 6.12265 115.239 5.84767 115.88 5.55069 115.995 5.49796 116.092 5.41372 116.161 5.30784 116.23 5.20196 116.267 5.07879 116.268 4.95259 116.27 4.82639 116.236 4.70237 116.169 4.59497 116.103 4.48757 116.007 4.4011 115.894 4.34579 115.233 4.02157 114.677 3.71035 114.186 3.43282 113.417 2.91444 112.552 2.55407 111.642 2.37262L109.155 2.07309C104.324 1.4895 99.3293.883162 94.3867.676958 67.7566-.435762 40.7162.608936 14.5669 1.61985L9.874 1.8008C9.16426 1.82876 8.45918 1.92888 7.76973 2.09969 6.98105 2.24831 6.26047 2.6449 5.71265 3.23176 5.16483 3.81863 4.81826 4.56515 4.72381 5.36261 4.6023 6.16975 4.75139 6.99446 5.14751 7.708 5.54363 8.42154 6.16476 8.9838 6.91381 9.30705z" class="color000 svgShape"></path></g><defs><clipPath id="a"><rect width="116" height="83" fill="#ffffff" transform="translate(.777)" class="colorfff svgShape"></rect></clipPath></defs></svg></g></svg>